PathFileType	4	(X/Y/Z)	OpenSim_Sub10_CSStiffKnee_Magnet.trc
DataRate	CameraRate	NumFrames	NumMarkers	Units	OrigDataRate	OrigDataStartFrame	OrigNumFrames
100	100	26	8	m	100	2044	8174
Frame#	Time	torso_imu_offset_imu	pelvis_imu_offset_imu	tibia_r_imu_offset_imu	femur_r_imu_offset_imu	tibia_l_imu_offset_imu	femur_l_imu_offset_imu	toes_r_imu_offset_imu	toes_l_imu_offset_imu
				X1	Y1	Z1	X2	Y2	Z2	X3	Y3	Z3	X4	Y4	Z4	X5	Y5	Z5	X6	Y6	Z6	X7	Y7	Z7	X8		Y8	Z8	

2044	20.43000000	-0.94438031	0.00348757	0.14784896	-0.60176928	0.02445542	-0.74338366	-0.71851755	-0.51634380	-0.12073675	-0.75329583	-0.34802765	0.07385463	-0.31601924	0.70056155	0.31111894	-0.64621798	0.33236751	0.20771656	-0.67303726	-0.17631654	-0.36586010	-0.81643259	-0.20645778	0.06245856
2045	20.44000000	-0.94582944	0.01012351	0.14560147	-0.60063735	0.01970645	-0.74749908	-0.71886769	-0.51963430	-0.12123784	-0.74641096	-0.35822989	0.06647946	-0.29830435	0.70938531	0.31179967	-0.64775077	0.32004426	0.20109908	-0.67241808	-0.17137783	-0.36366053	-0.81726821	-0.20676052	0.06468766
2046	20.45000000	-0.94972869	0.01506991	0.14093550	-0.60070890	0.01582500	-0.74571226	-0.71712355	-0.51998677	-0.12266419	-0.74148015	-0.36778944	0.06746902	-0.29455336	0.71643486	0.30301586	-0.64994406	0.31070742	0.19619980	-0.67121627	-0.16896819	-0.35929033	-0.81533708	-0.20910470	0.06031568
2047	20.46000000	-0.95185392	0.02036885	0.14329598	-0.60294743	0.00999047	-0.74691976	-0.71737764	-0.52088810	-0.11994217	-0.73783343	-0.37558029	0.06873209	-0.29527762	0.72008659	0.29104368	-0.65260836	0.30072533	0.20577143	-0.67409960	-0.17013393	-0.35427706	-0.81438617	-0.20743997	0.04806110
2048	20.47000000	-0.95296482	0.02666371	0.14551060	-0.60542688	0.00519040	-0.74398773	-0.71949011	-0.52505247	-0.12437953	-0.73647370	-0.38343499	0.07047598	-0.29484356	0.72985150	0.27874387	-0.65666910	0.29180352	0.20420907	-0.67590288	-0.17413396	-0.35457677	-0.81478114	-0.20850547	0.03287128
2049	20.48000000	-0.95238758	0.03353879	0.14314395	-0.60524991	-0.00104003	-0.74546324	-0.71341316	-0.52637262	-0.12185675	-0.73178133	-0.39591431	0.07227443	-0.30050379	0.72985358	0.26205494	-0.65575945	0.28560023	0.20493940	-0.67813399	-0.17641498	-0.35441147	-0.81339251	-0.20737491	0.01511343
2050	20.49000000	-0.94665012	0.03691930	0.14211001	-0.60838866	-0.01114610	-0.75273885	-0.71719129	-0.52781531	-0.12659874	-0.72029584	-0.40650142	0.08082301	-0.30829265	0.73041760	0.24663198	-0.65932131	0.28296540	0.20733978	-0.67877080	-0.17126891	-0.35245011	-0.81122665	-0.19742203	-0.00793411
2051	20.50000000	-0.94486974	0.04077208	0.14173493	-0.60734785	-0.02160697	-0.75187133	-0.71888580	-0.52688025	-0.13601128	-0.71332736	-0.41913837	0.08234893	-0.32115817	0.72926679	0.23415687	-0.66095156	0.28003136	0.20892235	-0.68018696	-0.17258436	-0.34792440	-0.81014466	-0.19101881	-0.03672635
2052	20.51000000	-0.94212394	0.04205426	0.14398045	-0.60314582	-0.03250481	-0.75116328	-0.71470430	-0.52862138	-0.13513684	-0.70950854	-0.42545030	0.07880381	-0.33837978	0.72348079	0.21906934	-0.65964583	0.27322439	0.20723457	-0.68092968	-0.17585383	-0.35089433	-0.81307590	-0.17946718	-0.05844558
2053	20.52000000	-0.95078246	0.04546411	0.14140379	-0.60177650	-0.04054418	-0.75519870	-0.71236336	-0.53127389	-0.13404898	-0.70510814	-0.43530219	0.08360148	-0.35697703	0.72277929	0.20694011	-0.66490132	0.27159947	0.20320817	-0.68183917	-0.17830917	-0.35191861	-0.81148816	-0.17022205	-0.08374113
2054	20.53000000	-0.95436612	0.05150098	0.13914919	-0.60519349	-0.04616743	-0.74923755	-0.71354823	-0.52865064	-0.14254811	-0.69954206	-0.44179028	0.08365738	-0.37245949	0.71878417	0.19278912	-0.66430101	0.26634118	0.20310679	-0.68389558	-0.17702189	-0.34546104	-0.80837543	-0.15992926	-0.11400375
2055	20.54000000	-0.94958993	0.05375390	0.13868324	-0.60454255	-0.05440728	-0.75309941	-0.71216904	-0.53054945	-0.14314516	-0.69240604	-0.45302111	0.08506851	-0.39332236	0.71371903	0.17345273	-0.66532883	0.25874746	0.20131675	-0.67824856	-0.18026025	-0.34823789	-0.80511814	-0.14670891	-0.14233187
2056	20.55000000	-0.94930183	0.05729269	0.14264986	-0.59809956	-0.05974748	-0.75426298	-0.71604422	-0.53447398	-0.13940724	-0.68743514	-0.45989138	0.08207579	-0.40906959	0.70560651	0.16377724	-0.66926683	0.24888798	0.20186422	-0.67976267	-0.18286465	-0.35319669	-0.80303654	-0.13952744	-0.16469806
2057	20.56000000	-0.95015844	0.06065065	0.13984489	-0.59988777	-0.06646445	-0.75293531	-0.71490142	-0.54348035	-0.13464280	-0.68220385	-0.46640072	0.07794144	-0.42937533	0.69437801	0.15516168	-0.66895565	0.24376354	0.20388753	-0.68402272	-0.18529340	-0.35212946	-0.79530322	-0.13728665	-0.18593949
2058	20.57000000	-0.94673439	0.06110214	0.14544973	-0.60009597	-0.07404874	-0.76113992	-0.70844161	-0.54786919	-0.13684268	-0.67466088	-0.47285240	0.08303541	-0.44885709	0.69043476	0.13991390	-0.67276046	0.23797365	0.20023011	-0.67874668	-0.18658348	-0.34972105	-0.78577378	-0.12282053	-0.20771168
2059	20.58000000	-0.94645119	0.06228897	0.15081744	-0.59975841	-0.07919739	-0.76104626	-0.70552282	-0.54757518	-0.13324314	-0.67288406	-0.47296014	0.08102001	-0.46614021	0.67633716	0.13533033	-0.67986212	0.23027411	0.19878809	-0.67519026	-0.18962703	-0.34799569	-0.78437099	-0.12248555	-0.22548225
2060	20.59000000	-0.94677098	0.06460907	0.15154579	-0.59304997	-0.08137560	-0.76300867	-0.70617667	-0.55349053	-0.13539411	-0.67031908	-0.48091139	0.08239593	-0.48380288	0.65762139	0.13041901	-0.68480245	0.22117620	0.19632972	-0.67191361	-0.18935105	-0.35306995	-0.78188623	-0.12699849	-0.23867117
2061	20.60000000	-0.94465028	0.06654229	0.15900485	-0.59269984	-0.08652332	-0.76401438	-0.70584989	-0.55610602	-0.13349103	-0.66600703	-0.48910114	0.08363221	-0.49853296	0.65293424	0.12443917	-0.68718553	0.21047698	0.19270066	-0.67740972	-0.19200686	-0.35439964	-0.77707665	-0.12131011	-0.25622544
2062	20.61000000	-0.94904398	0.06934414	0.16061205	-0.59078646	-0.08941051	-0.76025905	-0.70382788	-0.55608498	-0.13429598	-0.65822802	-0.49587624	0.08344674	-0.51571204	0.63784199	0.11811387	-0.69046784	0.19705084	0.19195636	-0.67897465	-0.19781648	-0.35269650	-0.77217136	-0.12025718	-0.26705712
2063	20.62000000	-0.94634805	0.07677584	0.16398870	-0.58792242	-0.08905228	-0.76126264	-0.69896845	-0.56164318	-0.13843438	-0.65485993	-0.49628944	0.08803303	-0.53147081	0.62530846	0.11372188	-0.70216568	0.19046539	0.18389573	-0.67263007	-0.20109675	-0.35306434	-0.76129055	-0.12727681	-0.27618952
2064	20.63000000	-0.94389274	0.07492479	0.17020523	-0.59369502	-0.09616204	-0.76241355	-0.69216054	-0.56570361	-0.13633042	-0.65483442	-0.49772181	0.09116052	-0.54883919	0.60790112	0.11278356	-0.70180310	0.17927003	0.17356896	-0.67347083	-0.20660208	-0.35236684	-0.76339273	-0.13418437	-0.29368693
2065	20.64000000	-0.93939980	0.07982710	0.17357515	-0.58930705	-0.10055773	-0.76134325	-0.68619156	-0.57550287	-0.13196883	-0.64905081	-0.50965460	0.09416762	-0.56132795	0.59401623	0.11319610	-0.70460737	0.16846226	0.17407546	-0.67941941	-0.20397027	-0.35465647	-0.75269873	-0.13615301	-0.30968540
2066	20.65000000	-0.94005040	0.08655406	0.17987504	-0.58285310	-0.09677561	-0.76500911	-0.68572238	-0.57595732	-0.13822575	-0.64394900	-0.51607180	0.10441528	-0.57657820	0.57905437	0.11157413	-0.71047518	0.16053482	0.17172522	-0.67754489	-0.19985808	-0.35238413	-0.74653467	-0.14012956	-0.31982668
2067	20.66000000	-0.94004658	0.08859444	0.18257322	-0.58536803	-0.10322215	-0.76628796	-0.68098720	-0.57836919	-0.12938692	-0.63879869	-0.51677006	0.11094419	-0.58879312	0.56275283	0.10804481	-0.71215866	0.14798436	0.16401885	-0.67728517	-0.20533826	-0.35165905	-0.74171124	-0.14202156	-0.33844786
2068	20.67000000	-0.93611749	0.09462792	0.18129018	-0.58063747	-0.11010334	-0.76799554	-0.67982384	-0.58694253	-0.12545664	-0.63186697	-0.52101592	0.11187540	-0.59890992	0.54675064	0.11180510	-0.71915841	0.14249095	0.16774735	-0.67557088	-0.20681134	-0.35295921	-0.73353415	-0.15016912	-0.34880270
2069	20.68000000	-0.93553187	0.10033257	0.18317223	-0.58140721	-0.10800072	-0.76585718	-0.67776811	-0.59183757	-0.13269921	-0.62727462	-0.52174993	0.11784785	-0.61373828	0.53375577	0.11473863	-0.71984654	0.13199547	0.16127586	-0.67428944	-0.21120565	-0.35307711	-0.72504068	-0.15601993	-0.36671070
